<svg xmlns="http://www.w3.org/2000/svg" xmlns:xlink="http://www.w3.org/1999/xlink" viewBox="0 0 130.167 61.167" fill="#fff" fill-rule="evenodd" stroke="#000" stroke-linecap="round" stroke-linejoin="round"><use xlink:href="#A" x="2.083" y="2.083"/><symbol id="A" overflow="visible"><g stroke="none"><g fill="#d0cfce" fill-rule="nonzero"><path d="M112.912 40.86c0-1.15.933-2.083 2.083-2.083h8.63v-19.13h-8.63c-1.15 0-2.083-.933-2.083-2.083m0 0V2.644H1.854v52.1h111.063V40.86"/><path d="M115.23 19.087c-1.15 0-2.083-.933-2.083-2.083V2.108H2.106v52.1h111.07V40.323c0-1.15.933-2.083 2.083-2.083h8.63V19.087h-8.638z"/></g><path d="M12.98 46.206h67.167v-35.43H12.98v35.43z" fill="#b1cc33" fill-rule="nonzero"/></g><g fill="none" stroke-width="4.167"><path d="M115.225 17V2.083c0-1.15-.933-2.083-2.083-2.083H2.083C.933 0 0 .933 0 2.083V54.2c0 1.15.933 2.083 2.083 2.083h111.07c1.15 0 2.083-.933 2.083-2.083V40.296h10.715V17h-10.725z"/><path d="M10.892 8.692h71.333V48.3H10.892z"/></g></symbol></svg>