<?xml version="1.0" encoding="UTF-8" standalone="no"?>
<!DOCTYPE svg PUBLIC "-//W3C//DTD SVG 1.1//EN" "http://www.w3.org/Graphics/SVG/1.1/DTD/svg11.dtd">
<svg version="1.1" xmlns="http://www.w3.org/2000/svg" xmlns:xlink="http://www.w3.org/1999/xlink" preserveAspectRatio="xMidYMid meet" viewBox="721.7996888541454 63.17871881737199 144.8835964175763 144.88359641757629" width="142.88" height="142.88"><defs><path d="M794.24 207.06C754.82 207.06 722.8 175.05 722.8 135.63C722.8 96.2 754.82 64.18 794.24 64.18C833.67 64.18 865.68 96.2 865.68 135.63C865.68 175.05 833.67 207.06 794.24 207.06Z" id="av56aZF6t"></path><path d="M808.75 135.62L834.67 161.54L820.16 176.05L794.24 150.13L768.33 176.05L753.81 161.54L779.73 135.62L753.81 109.71L768.33 95.19L794.24 121.11L820.16 95.19L834.67 109.71L808.75 135.62Z" id="b1CV9FpNEV"></path></defs><g><g><g><filter id="shadow12800140" x="716.8" y="58.18" width="154.88" height="154.88" filterUnits="userSpaceOnUse" primitiveUnits="userSpaceOnUse"><feFlood></feFlood><feComposite in2="SourceAlpha" operator="in"></feComposite><feGaussianBlur stdDeviation="0"></feGaussianBlur><feOffset dx="0" dy="0" result="afterOffset"></feOffset><feFlood flood-color="#000000" flood-opacity="0.5"></feFlood><feComposite in2="afterOffset" operator="in"></feComposite><feMorphology operator="dilate" radius="1"></feMorphology><feComposite in2="SourceAlpha" operator="out"></feComposite></filter><path d="M794.24 207.06C754.82 207.06 722.8 175.05 722.8 135.63C722.8 96.2 754.82 64.18 794.24 64.18C833.67 64.18 865.68 96.2 865.68 135.63C865.68 175.05 833.67 207.06 794.24 207.06Z" id="fdm0pfJwr" fill="white" fill-opacity="1" filter="url(#shadow12800140)"></path></g><use xlink:href="#av56aZF6t" opacity="1" fill="#de0000" fill-opacity="1"></use><g><use xlink:href="#av56aZF6t" opacity="1" fill-opacity="0" stroke="#000000" stroke-width="1" stroke-opacity="0"></use></g></g><g><g><filter id="shadow12387652" x="745.81" y="87.19" width="96.86" height="96.86" filterUnits="userSpaceOnUse" primitiveUnits="userSpaceOnUse"><feFlood></feFlood><feComposite in2="SourceAlpha" operator="in"></feComposite><feGaussianBlur stdDeviation="1"></feGaussianBlur><feOffset dx="0" dy="0" result="afterOffset"></feOffset><feFlood flood-color="#000000" flood-opacity="0.5"></feFlood><feComposite in2="afterOffset" operator="in"></feComposite><feMorphology operator="dilate" radius="1"></feMorphology><feComposite in2="SourceAlpha" operator="out"></feComposite></filter><path d="M808.75 135.62L834.67 161.54L820.16 176.05L794.24 150.13L768.33 176.05L753.81 161.54L779.73 135.62L753.81 109.71L768.33 95.19L794.24 121.11L820.16 95.19L834.67 109.71L808.75 135.62Z" id="bvDqkEK2W" fill="white" fill-opacity="1" filter="url(#shadow12387652)"></path></g><use xlink:href="#b1CV9FpNEV" opacity="1" fill="#181818" fill-opacity="1"></use></g></g></svg>