<?xml version="1.0" encoding="UTF-8" standalone="no"?> <svg id="Layer_1" enable-background="new 0 0 511.876 511.876" height="512" viewBox="0 0 511.876 511.876" width="512" xmlns="http://www.w3.org/2000/svg"><g><path d="m0 21.587h511.876v372.747h-511.876z" fill="#ececef"/><path d="m255.938 21.587h255.938v372.747h-255.938z" fill="#dddddf"/><path d="m426.872 117.994c-11.802 0-21.403-9.602-21.403-21.403v-15h-299.061v15c0 11.802-9.602 21.403-21.403 21.403h-15v179.933h15c11.802 0 21.403 9.602 21.403 21.403v15h299.061v-15c0-11.802 9.602-21.403 21.403-21.403h15v-179.933z" fill="#f6f9f9"/><path d="m426.872 117.994c-11.802 0-21.403-9.602-21.403-21.403v-15h-149.53v252.739h149.53v-15c0-11.802 9.602-21.403 21.403-21.403h15v-179.933z" fill="#ececef"/><path d="m203.734 344.823v145.466l52.204-29.005 52.204 29.005v-145.469z" fill="#ff6326"/><path d="m308.142 490.289v-145.469l-52.204.002v116.462z" fill="#ff3838"/><circle cx="255.938" cy="319.33" fill="#fff16b" r="54.99"/><path d="m255.938 264.339v109.981c30.37 0 54.99-24.62 54.99-54.99s-24.62-54.991-54.99-54.991z" fill="#ffd321"/><path d="m255.938 389.32c-38.593 0-69.99-31.397-69.99-69.99s31.397-69.99 69.99-69.99 69.99 31.397 69.99 69.99-31.397 69.99-69.99 69.99zm0-109.98c-22.051 0-39.99 17.939-39.99 39.99s17.939 39.99 39.99 39.99 39.99-17.939 39.99-39.99-17.939-39.99-39.99-39.99z" fill="#ffd321"/><g><path d="m150.938 139.594h210v30h-210z" fill="#595959"/></g><g><path d="m194.271 193.598h123.333v30h-123.333z" fill="#595959"/></g><path d="m255.938 139.594h105v30h-105z" fill="#454040"/><path d="m255.938 193.598h61.667v30h-61.667z" fill="#454040"/><path d="m255.938 249.34v30c22.051 0 39.99 17.939 39.99 39.99s-17.939 39.99-39.99 39.99v30c38.593 0 69.99-31.397 69.99-69.99s-31.397-69.99-69.99-69.99z" fill="#ffaf00"/></g></svg>