<?xml version="1.0" encoding="iso-8859-1"?>
<!-- Generator: Adobe Illustrator 19.0.0, SVG Export Plug-In . SVG Version: 6.00 Build 0)  -->
<svg version="1.1" id="Capa_1" xmlns="http://www.w3.org/2000/svg" xmlns:xlink="http://www.w3.org/1999/xlink" x="0px" y="0px"
	 viewBox="0 0 512 512" style="enable-background:new 0 0 512 512;" xml:space="preserve">
<path style="fill:#F7B64C;" d="M192,90.667L172.8,41.6c-4.267-12.8-16-20.267-28.8-20.267H32c-18.133,0-32,13.867-32,32v405.333
	c0,18.133,13.867,32,32,32h448c18.133,0,32-13.867,32-32v-336c0-18.133-13.867-32-32-32H192z"/>
<path style="fill:#F3F3F3;" d="M470.4,196.267V89.6c0-11.733-9.6-21.333-21.333-21.333H62.933C51.2,68.267,41.6,77.867,41.6,89.6
	v106.667H470.4z"/>
<path style="fill:#FFFFFF;" d="M470.4,228.267V121.6c0-11.733-9.6-21.333-21.333-21.333H62.933c-11.733,0-21.333,9.6-21.333,21.333
	v106.667H470.4z"/>
<path style="fill:#FFD15C;" d="M0,172.8v285.867c0,18.133,13.867,32,32,32h448c18.133,0,32-13.867,32-32V172.8
	c0-18.133-13.867-32-32-32H32C13.867,140.8,0,155.733,0,172.8z"/>
<path style="fill:#F3705A;" d="M256,435.2c48-65.067,128-101.333,128-171.733c0-36.267-29.867-66.133-66.133-66.133
	c-28.8,0-52.267,18.133-61.867,42.667c-9.6-25.6-33.067-42.667-61.867-42.667c-36.267,0-66.133,29.867-66.133,66.133
	C128,332.8,212.267,375.467,256,435.2z"/>
<g>
</g>
<g>
</g>
<g>
</g>
<g>
</g>
<g>
</g>
<g>
</g>
<g>
</g>
<g>
</g>
<g>
</g>
<g>
</g>
<g>
</g>
<g>
</g>
<g>
</g>
<g>
</g>
<g>
</g>
</svg>
