<?xml version="1.0" encoding="utf-8"?>
<!-- Generator: Adobe Illustrator 19.0.0, SVG Export Plug-In . SVG Version: 6.00 Build 0)  -->
<svg version="1.1" id="Layer_1" xmlns="http://www.w3.org/2000/svg" xmlns:xlink="http://www.w3.org/1999/xlink" x="0px" y="0px"
	 viewBox="0 0 96 96" style="enable-background:new 0 0 96 96;" xml:space="preserve">
<style type="text/css">
	.st0{fill:#231F20;}
</style>
<g id="XMLID_1_">
	<path id="XMLID_16_" class="st0" d="M58.9,18H37.1c-2.1,0-3.9,1.7-3.9,3.9v52.2c0,2.1,1.7,3.9,3.9,3.9h21.7c2.1,0,3.9-1.7,3.9-3.9
		V21.9C62.8,19.7,61,18,58.9,18z M46.4,21.2h3.2c0.2,0,0.4,0.2,0.4,0.4c0,0.2-0.2,0.4-0.4,0.4h-3.2c-0.2,0-0.4-0.2-0.4-0.4
		C45.9,21.4,46.1,21.2,46.4,21.2z M43.9,20.8c0.5,0,0.8,0.4,0.8,0.8c0,0.4-0.4,0.8-0.8,0.8c-0.4,0-0.8-0.4-0.8-0.8
		C43.1,21.1,43.5,20.8,43.9,20.8z M48,76.6c-1.2,0-2.1-1-2.1-2.1c0-1.2,1-2.1,2.1-2.1c1.2,0,2.1,1,2.1,2.1
		C50.1,75.7,49.2,76.6,48,76.6z M60.8,71.4H35.2c-0.3,0-0.5-0.3-0.5-0.6l0-45.6c0-0.3,0.2-0.6,0.5-0.6h25.6c0.3,0,0.5,0.3,0.5,0.6
		l0,45.6C61.4,71.1,61.1,71.4,60.8,71.4z"/>
	<circle id="XMLID_17_" class="st0" cx="48" cy="74.5" r="1.4"/>
</g>
</svg>
