<svg xmlns="http://www.w3.org/2000/svg" xmlns:xlink="http://www.w3.org/1999/xlink" viewBox="0 0 62 58" fill="#fff" fill-rule="evenodd" stroke="#000" stroke-linecap="round" stroke-linejoin="round"><use xlink:href="#A" x=".5" y=".5"/><defs><style>@import url("https://fonts.googleapis.com/css?family=Roboto:400,400i,700,700i")</style></defs><symbol id="A" overflow="visible"><path d="M7.436 0c1.9 0 3.387.63 4.467 1.88s1.66 2.832 1.738 4.725c0 1.87-.607 3.447-1.83 4.728s-2.894 1.92-5.007 1.92h-.075c-2.064 0-3.698-.64-4.915-1.92C.6 10.054 0 8.476 0 6.607 0 4.684.663 3.104 2 1.86S5.152 0 7.436 0zM.8 18.504H13.84v38.493H.8V18.504zM61 34.927v22.07H47.96V36.4c0-2.62-.513-4.717-1.532-6.314-1.014-1.583-2.7-2.376-5.105-2.376-1.824 0-3.29.486-4.38 1.463-1.095.97-1.888 2.045-2.367 3.224-.156.427-.254.898-.306 1.422-.05.515-.072 1.074-.072 1.662V57h-13.12l.086-17.907v-13.06l-.05-4.848-.036-2.68h13.12v5.45l-.072.158h.072v-.158c.407-.67.927-1.37 1.562-2.104.643-.73 1.412-1.416 2.348-2.048.927-.626 2.044-1.14 3.353-1.56 1.317-.413 2.816-.617 4.523-.617 2.122 0 4.105.34 5.954 1.02 1.844.682 3.428 1.75 4.776 3.207 1.34 1.448 2.39 3.25 3.153 5.404.76 2.148 1.133 4.705 1.133 7.67z" fill="#00679b" stroke="none"/></symbol></svg>