<?xml version="1.0" encoding="UTF-8" standalone="no"?>
<!DOCTYPE svg PUBLIC "-//W3C//DTD SVG 1.1//EN" "http://www.w3.org/Graphics/SVG/1.1/DTD/svg11.dtd">
<svg version="1.1" xmlns="http://www.w3.org/2000/svg" xmlns:xlink="http://www.w3.org/1999/xlink" preserveAspectRatio="xMidYMid meet" viewBox="415.2790697674419 615.3164107663436 138.4186046511628 138.4186046511627" width="134.42" height="134.42"><defs><path d="M533.49 616.32C542.99 616.32 550.7 624.02 550.7 633.52C550.7 656.97 550.7 710.08 550.7 733.53C550.7 743.03 542.99 750.74 533.49 750.74C510.05 750.74 456.93 750.74 433.49 750.74C423.98 750.74 416.28 743.03 416.28 733.53C416.28 710.08 416.28 656.97 416.28 633.52C416.28 624.02 423.98 616.32 433.49 616.32C456.93 616.32 510.05 616.32 533.49 616.32Z" id="aeqy3ZSMe"></path><linearGradient id="gradienta1Ryh7xPCj" gradientUnits="userSpaceOnUse" x1="483.49" y1="616.32" x2="483.49" y2="750.74"><stop style="stop-color: #004363;stop-opacity: 1" offset="0%"></stop><stop style="stop-color: #007ebb;stop-opacity: 1" offset="100%"></stop></linearGradient><path d="M514.66 723.6C519.58 723.6 523.57 719.62 523.57 714.7C523.57 708.46 523.57 658.59 523.57 652.35C523.57 647.44 519.58 643.45 514.66 643.45C508.43 643.45 458.55 643.45 452.32 643.45C447.4 643.45 443.41 647.44 443.41 652.35C443.41 658.59 443.41 708.46 443.41 714.7C443.41 719.62 447.4 723.6 452.32 723.6C464.79 723.6 508.43 723.6 514.66 723.6Z" id="afCDToNTi"></path><path d="M500.54 712.47C500.54 700.32 500.54 693.56 500.54 692.21C500.54 686.66 498.43 683.55 494.03 683.55C489.25 683.55 486.75 686.78 486.75 692.21C486.75 693.56 486.75 700.32 486.75 712.47L475.29 712.47L475.29 673.88L486.75 673.88C486.75 677 486.75 678.73 486.75 679.08C486.75 679.08 490.2 672.7 498.39 672.7C506.57 672.7 512.43 677.7 512.43 688.04C512.43 689.66 512.43 697.81 512.43 712.47L500.54 712.47ZM454.54 661.7C454.54 657.77 457.71 654.58 461.61 654.58C465.52 654.58 468.68 657.77 468.68 661.7C468.68 665.64 465.52 668.82 461.61 668.82C457.71 668.82 454.54 665.64 454.54 661.7ZM467.65 712.47L467.65 673.88L455.69 673.88L455.69 712.47L467.65 712.47Z" id="f3wiG14gPJ"></path></defs><g><g><use xlink:href="#aeqy3ZSMe" opacity="1" fill="url(#gradienta1Ryh7xPCj)"></use></g><g><use xlink:href="#afCDToNTi" opacity="1" fill="#007ebb" fill-opacity="1"></use><g><use xlink:href="#afCDToNTi" opacity="1" fill-opacity="0" stroke="#000000" stroke-width="1" stroke-opacity="0"></use></g></g><g><use xlink:href="#f3wiG14gPJ" opacity="1" fill="#ffffff" fill-opacity="1"></use><g><use xlink:href="#f3wiG14gPJ" opacity="1" fill-opacity="0" stroke="#000000" stroke-width="1" stroke-opacity="0"></use></g></g></g></svg>