<?xml version="1.0" encoding="UTF-8" standalone="no"?>
<!DOCTYPE svg PUBLIC "-//W3C//DTD SVG 1.1//EN" "http://www.w3.org/Graphics/SVG/1.1/DTD/svg11.dtd">
<svg version="1.1" xmlns="http://www.w3.org/2000/svg" xmlns:xlink="http://www.w3.org/1999/xlink" preserveAspectRatio="xMidYMid meet" viewBox="721.7996888541454 222.2696279082812 146.8835964175763 146.88359641757634" width="142.88" height="142.88"><defs><path d="M794.24 366.15C754.82 366.15 722.8 334.14 722.8 294.72C722.8 255.29 754.82 223.27 794.24 223.27C833.67 223.27 865.68 255.29 865.68 294.72C865.68 334.14 833.67 366.15 794.24 366.15Z" id="bm7BioZ3w"></path><path d="M765.59 289.78L747.55 322.55L784.96 322.26L778.66 311.7L816.6 289.09L822.89 299.64L840.93 266.87L803.53 267.16L809.82 277.72L771.89 300.34L765.59 289.78Z" id="bpxdLVn1X"></path></defs><g><g><use xlink:href="#bm7BioZ3w" opacity="1" fill="#24bd2e" fill-opacity="1"></use><g><use xlink:href="#bm7BioZ3w" opacity="1" fill-opacity="0" stroke="#000000" stroke-width="1" stroke-opacity="0"></use></g></g><g><g><filter id="shadow10518646" x="739.55" y="258.87" width="109.38" height="71.68" filterUnits="userSpaceOnUse" primitiveUnits="userSpaceOnUse"><feFlood></feFlood><feComposite in2="SourceAlpha" operator="in"></feComposite><feGaussianBlur stdDeviation="1"></feGaussianBlur><feOffset dx="0" dy="0" result="afterOffset"></feOffset><feFlood flood-color="#000000" flood-opacity="0.5"></feFlood><feComposite in2="afterOffset" operator="in"></feComposite><feMorphology operator="dilate" radius="1"></feMorphology><feComposite in2="SourceAlpha" operator="out"></feComposite></filter><path d="M765.59 289.78L747.55 322.55L784.96 322.26L778.66 311.7L816.6 289.09L822.89 299.64L840.93 266.87L803.53 267.16L809.82 277.72L771.89 300.34L765.59 289.78Z" id="ai3uUU1gh" fill="white" fill-opacity="1" filter="url(#shadow10518646)"></path></g><use xlink:href="#bpxdLVn1X" opacity="1" fill="#000000" fill-opacity="1"></use></g></g></svg>