<?xml version="1.0" encoding="utf-8"?>
<!-- Svg Vector Icons : http://www.onlinewebfonts.com/icon -->
<!DOCTYPE svg PUBLIC "-//W3C//DTD SVG 1.1//EN" "http://www.w3.org/Graphics/SVG/1.1/DTD/svg11.dtd">
<svg version="1.1" xmlns="http://www.w3.org/2000/svg" xmlns:xlink="http://www.w3.org/1999/xlink" x="0px" y="0px" viewBox="0 0 1000 1000" enable-background="new 0 0 1000 1000" xml:space="preserve">
<metadata> Svg Vector Icons : http://www.onlinewebfonts.com/icon </metadata>
<g><g><path d="M990,542.4v340.8c0,58.9-48,106.9-106.9,106.9H116.9C58,990.1,10,942.2,10,883.2V117.9C10,59,58,11,116.9,11h341.8c-18.4,18.9-30.6,43.8-33.3,71.5H116.9c-19.6,0-35.5,15.9-35.5,35.4v765.3c0,19.5,15.9,35.4,35.5,35.4h766.1c19.6,0,35.5-15.9,35.5-35.4V575.6C945.4,573.1,970.4,561.5,990,542.4z M824.9,479.6H591.3l378.2-378.2c20.9-20.9,20.9-54.9,0-75.8c-20.9-20.9-54.9-20.9-75.8,0L515.5,403.8V170.1c0-29.6-24-53.6-53.6-53.6c-14.8,0-28.2,6-37.9,15.7c-9.7,9.7-15.7,23.1-15.7,37.9v363c0,29.6,24,53.6,53.6,53.6h363c29.6,0,53.6-24,53.6-53.6C878.5,503.5,854.5,479.6,824.9,479.6z"/></g><g></g><g></g><g></g><g></g><g></g><g></g><g></g><g></g><g></g><g></g><g></g><g></g><g></g><g></g><g></g></g>
</svg>