<?xml version="1.0" encoding="UTF-8" standalone="no"?>
<!DOCTYPE svg PUBLIC "-//W3C//DTD SVG 1.1//EN" "http://www.w3.org/Graphics/SVG/1.1/DTD/svg11.dtd">
<svg version="1.1" xmlns="http://www.w3.org/2000/svg" xmlns:xlink="http://www.w3.org/1999/xlink" preserveAspectRatio="xMidYMid meet" viewBox="887.5582017912118 63.17871881737193 144.8835964175762 144.88359641757626" width="142.88" height="142.88"><defs><path d="M960 207.06C920.57 207.06 888.56 175.05 888.56 135.63C888.56 96.2 920.57 64.18 960 64.18C999.43 64.18 1031.44 96.2 1031.44 135.63C1031.44 175.05 999.43 207.06 960 207.06Z" id="a2Q0wuplHq"></path><path d="M988.31 123.5C995 123.5 1000.43 128.93 1000.43 135.62C1000.43 138.04 1000.43 133.2 1000.43 135.62C1000.43 142.31 995 147.74 988.31 147.74C974.56 147.74 945.44 147.74 931.69 147.74C925 147.74 919.57 142.31 919.57 135.62C919.57 133.2 919.57 138.04 919.57 135.62C919.57 128.93 925 123.5 931.69 123.5C945.44 123.5 974.56 123.5 988.31 123.5Z" id="cfdw8qjfd"></path></defs><g><g><g><filter id="shadow15966308" x="882.56" y="58.18" width="154.88" height="154.88" filterUnits="userSpaceOnUse" primitiveUnits="userSpaceOnUse"><feFlood></feFlood><feComposite in2="SourceAlpha" operator="in"></feComposite><feGaussianBlur stdDeviation="0"></feGaussianBlur><feOffset dx="0" dy="0" result="afterOffset"></feOffset><feFlood flood-color="#000000" flood-opacity="0.5"></feFlood><feComposite in2="afterOffset" operator="in"></feComposite><feMorphology operator="dilate" radius="1"></feMorphology><feComposite in2="SourceAlpha" operator="out"></feComposite></filter><path d="M960 207.06C920.57 207.06 888.56 175.05 888.56 135.63C888.56 96.2 920.57 64.18 960 64.18C999.43 64.18 1031.44 96.2 1031.44 135.63C1031.44 175.05 999.43 207.06 960 207.06Z" id="b24lavjOUQ" fill="white" fill-opacity="1" filter="url(#shadow15966308)"></path></g><use xlink:href="#a2Q0wuplHq" opacity="1" fill="#f9af0c" fill-opacity="1"></use><g><use xlink:href="#a2Q0wuplHq" opacity="1" fill-opacity="0" stroke="#000000" stroke-width="1" stroke-opacity="0"></use></g></g><g><g><filter id="shadow7416371" x="911.57" y="115.5" width="96.86" height="40.24" filterUnits="userSpaceOnUse" primitiveUnits="userSpaceOnUse"><feFlood></feFlood><feComposite in2="SourceAlpha" operator="in"></feComposite><feGaussianBlur stdDeviation="1"></feGaussianBlur><feOffset dx="0" dy="0" result="afterOffset"></feOffset><feFlood flood-color="#000000" flood-opacity="0.5"></feFlood><feComposite in2="afterOffset" operator="in"></feComposite><feMorphology operator="dilate" radius="1"></feMorphology><feComposite in2="SourceAlpha" operator="out"></feComposite></filter><path d="M988.31 123.5C995 123.5 1000.43 128.93 1000.43 135.62C1000.43 138.04 1000.43 133.2 1000.43 135.62C1000.43 142.31 995 147.74 988.31 147.74C974.56 147.74 945.44 147.74 931.69 147.74C925 147.74 919.57 142.31 919.57 135.62C919.57 133.2 919.57 138.04 919.57 135.62C919.57 128.93 925 123.5 931.69 123.5C945.44 123.5 974.56 123.5 988.31 123.5Z" id="aaGhTO0tx" fill="white" fill-opacity="1" filter="url(#shadow7416371)"></path></g><use xlink:href="#cfdw8qjfd" opacity="1" fill="#000000" fill-opacity="1"></use></g></g></svg>