<svg xmlns="http://www.w3.org/2000/svg" xmlns:xlink="http://www.w3.org/1999/xlink" viewBox="0 0 137.125 123.167" fill="#fff" fill-rule="evenodd" stroke="#000" stroke-linecap="round" stroke-linejoin="round"><use xlink:href="#A" x="2.083" y="2.083"/><symbol id="A" overflow="visible"><g stroke="none" fill-rule="nonzero"><path d="M83.388 104.166c0 10.33 16.333 14.67 16.333 14.67H33.846s16.333-4.34 16.333-14.67v-10.28h32.875l.337 10.28z" fill="#d0cfce"/><use xlink:href="#C" fill="#9b9b9a"/><path d="M132.063 74.505L.117 27.588V7.884A5.57 5.57 0 0 1 7.546 2.64l124.517 44.28v27.583z"/><use xlink:href="#D" fill="#d0cfce"/></g><g fill="none"><use xlink:href="#C" stroke-width="4.167"/><use xlink:href="#D" stroke-width="1.915" stroke-linecap="butt"/><g stroke-width="4.167"><use xlink:href="#C"/><path d="M6.367 78.196H127.2m-45.896 25.97c0 10.33 18.417 14.67 18.417 14.67H33.846s18.417-4.34 18.417-14.67"/></g></g></symbol><defs ><path id="C" d="M122.994 93.838H10.573C4.733 93.838 0 89.104 0 83.265V10.573C0 4.733 4.733 0 10.573 0h112.42c5.84 0 10.573 4.733 10.573 10.573v72.692c0 5.84-4.733 10.573-10.573 10.573z"/><path id="D" d="M133.57 76.26s.354 10.117-3.23 14.23-1.504 3.34-7.344 3.34H10.573c-5.84 0-8.675-3.858-8.675-5.09L.002 76.26"/></defs></svg>