<?xml version="1.0" encoding="iso-8859-1"?>
<!-- Generator: Adobe Illustrator 19.0.0, SVG Export Plug-In . SVG Version: 6.00 Build 0)  -->
<svg version="1.1" id="Layer_1" xmlns="http://www.w3.org/2000/svg" xmlns:xlink="http://www.w3.org/1999/xlink" x="0px" y="0px"
	 viewBox="0 0 512 512" style="enable-background:new 0 0 512 512;" xml:space="preserve">
<g>
	<g>
		<path d="M425.14,174.541c-5.001-5.001-13.099-5.001-18.099,0c-5.001,5-5.001,13.099,0,18.099
			c34.927,34.953,34.927,91.776,0,126.729c-5.001,5-5.001,13.099,0,18.099c2.5,2.5,5.777,3.746,9.054,3.746
			c3.277,0,6.554-1.246,9.054-3.746C470.051,292.54,470.051,219.46,425.14,174.541z"/>
	</g>
</g>
<g>
	<g>
		<path d="M470.827,156.442c-5-5-13.099-5-18.099,0c-5,5.001-5,13.099,0,18.099c44.911,44.928,44.911,117.999,0,162.927
			c-5,5-5,13.099,0,18.099c2.5,2.5,5.777,3.746,9.054,3.746s6.554-1.246,9.054-3.746
			C525.722,300.664,525.722,211.337,470.827,156.442z"/>
	</g>
</g>
<g>
	<g>
		<path d="M343.501,2.338C340.079,0.768,336.427,0,332.809,0c-5.999,0-11.93,2.108-16.666,6.161L144.129,153.6H25.6
			c-14.14,0-25.6,11.46-25.6,25.6v153.6c0,14.14,11.46,25.6,25.6,25.6h118.528l172.015,147.439
			c4.727,4.053,10.667,6.161,16.666,6.161c3.627,0,7.27-0.768,10.692-2.338c9.08-4.181,14.899-13.261,14.899-23.262V25.6
			C358.401,15.599,352.581,6.519,343.501,2.338z M332.801,486.4l-179.2-153.6h-128V179.2h128l179.2-153.6V486.4z"/>
	</g>
</g>
<g>
</g>
<g>
</g>
<g>
</g>
<g>
</g>
<g>
</g>
<g>
</g>
<g>
</g>
<g>
</g>
<g>
</g>
<g>
</g>
<g>
</g>
<g>
</g>
<g>
</g>
<g>
</g>
<g>
</g>
</svg>
