<?xml version="1.0" encoding="UTF-8" standalone="no"?>
<!DOCTYPE svg PUBLIC "-//W3C//DTD SVG 1.1//EN" "http://www.w3.org/Graphics/SVG/1.1/DTD/svg11.dtd">
<svg version="1.1" xmlns="http://www.w3.org/2000/svg" xmlns:xlink="http://www.w3.org/1999/xlink" preserveAspectRatio="xMidYMid meet" viewBox="44.00000000000003 809 153.99999999999997 153.99999999999977" width="150" height="150"><defs><path d="M195 821.16C195 848.92 195 921.07 195 948.84C195 955 190 960 183.84 960C156.08 960 83.93 960 56.16 960C50 960 45 955 45 948.84C45 921.07 45 848.92 45 821.16C45 814.99 50 810 56.16 810C83.93 810 156.08 810 183.84 810C190 810 195 814.99 195 821.16Z" id="e2eFkTkSsy"></path><path d="M120 933.19C146.1 933.19 167.25 912.03 167.25 885.94C167.25 859.84 146.1 838.69 120 838.69C120 857.59 120 923.74 120 933.19ZM60.94 885.94C60.94 853.32 87.38 826.88 120 826.88C152.62 826.88 179.06 853.32 179.06 885.94C179.06 918.56 152.62 945 120 945C87.38 945 60.94 918.56 60.94 885.94Z" id="a160TKNrSo"></path></defs><g><g><use xlink:href="#e2eFkTkSsy" opacity="1" fill="#000000" fill-opacity="1"></use><g><use xlink:href="#e2eFkTkSsy" opacity="1" fill-opacity="0" stroke="#000000" stroke-width="1" stroke-opacity="0"></use></g></g><g><use xlink:href="#a160TKNrSo" opacity="1" fill="#ffffff" fill-opacity="1"></use><g><use xlink:href="#a160TKNrSo" opacity="1" fill-opacity="0" stroke="#000000" stroke-width="1" stroke-opacity="0"></use></g></g></g></svg>