<?xml version="1.0" encoding="UTF-8" standalone="no"?>
<!DOCTYPE svg PUBLIC "-//W3C//DTD SVG 1.1//EN" "http://www.w3.org/Graphics/SVG/1.1/DTD/svg11.dtd">
<svg version="1.1" xmlns="http://www.w3.org/2000/svg" xmlns:xlink="http://www.w3.org/1999/xlink" preserveAspectRatio="xMidYMid meet" viewBox="229.27906976744183 613.3164107663436 138.41860465116284 138.4186046511628" width="134.42" height="134.42"><defs><path d="M364.7 624.32C364.7 649.2 364.7 713.85 364.7 738.74C364.7 744.26 360.22 748.74 354.7 748.74C329.82 748.74 265.17 748.74 240.28 748.74C234.76 748.74 230.28 744.26 230.28 738.74C230.28 713.85 230.28 649.2 230.28 624.32C230.28 618.79 234.76 614.32 240.28 614.32C265.17 614.32 329.82 614.32 354.7 614.32C360.22 614.32 364.7 618.79 364.7 624.32Z" id="a3MYCFzZ0H"></path><linearGradient id="gradientc3JchXbzqP" gradientUnits="userSpaceOnUse" x1="297.49" y1="617.28" x2="297.49" y2="744.78"><stop style="stop-color: #a20001;stop-opacity: 1" offset="0%"></stop><stop style="stop-color: #ff0000;stop-opacity: 1" offset="100%"></stop></linearGradient><path d="M266.72 644.2C266.72 651.8 266.72 712.58 266.72 720.17C266.72 720.66 267.66 721.6 268.81 721.6C274.55 721.6 320.43 721.6 326.17 721.6C327.33 721.6 328.26 720.66 328.26 720.17C328.26 714.15 328.26 666.04 328.26 660.02C328.26 659.02 328.13 658.7 327.89 658.47C326.23 656.81 312.9 643.48 311.24 641.82C311.01 641.58 310.69 641.45 310.35 641.45C302.04 641.45 272.97 641.45 268.81 641.45C267.66 641.45 266.72 642.38 266.72 644.2Z" id="bma3uM4sv"></path><path d="M266.72 644.2C266.72 651.8 266.72 712.58 266.72 720.17C266.72 720.66 267.66 721.6 268.81 721.6C274.55 721.6 320.43 721.6 326.17 721.6C327.33 721.6 328.26 720.66 328.26 720.17C328.26 714.15 328.26 666.04 328.26 660.02C328.26 659.02 328.13 658.7 327.89 658.47C326.23 656.81 312.9 643.48 311.24 641.82C311.01 641.58 310.69 641.45 310.35 641.45C302.04 641.45 272.97 641.45 268.81 641.45C267.66 641.45 266.72 642.38 266.72 644.2Z" id="h1Z9s2fiI"></path><path d="M328.05 658.62L311.09 641.66L311.09 658.62L328.05 658.62Z" id="a4wZBMd5q"></path><path d="M328.05 658.62L311.09 641.66L311.09 658.62L328.05 658.62Z" id="abxyAcHt7"></path><path d="M283.96 688.68C282.47 687.56 282.27 686.31 282.36 685.47C282.63 683.14 285.51 680.7 290.93 678.21C293.08 673.5 295.13 667.68 296.36 662.83C294.93 659.72 293.54 655.69 294.55 653.32C294.9 652.49 295.34 651.86 296.17 651.58C296.5 651.47 297.32 651.33 297.62 651.33C298.35 651.33 298.98 652.26 299.43 652.83C299.85 653.37 300.81 654.51 298.9 662.57C300.82 666.56 303.56 670.61 306.18 673.4C308.05 673.06 309.67 672.88 310.98 672.88C313.23 672.88 314.58 673.4 315.14 674.48C315.59 675.37 315.41 676.41 314.58 677.57C313.78 678.69 312.68 679.27 311.4 679.27C309.66 679.27 307.64 678.18 305.38 676.01C301.31 676.85 296.57 678.37 292.74 680.05C291.54 682.59 290.39 684.63 289.33 686.13C287.86 688.18 286.6 689.14 285.34 689.14C285.34 689.14 285.34 689.14 285.34 689.14C284.85 689.14 284.37 688.98 283.96 688.68ZM285.37 686.72C285.59 686.66 286.83 686.09 289.15 681.81C286.1 683.52 284.85 684.94 284.76 685.73C284.74 685.87 284.71 686.21 285.37 686.72ZM312.62 676.17C312.83 675.87 312.92 675.68 312.95 675.58C312.77 675.48 312.54 675.29 311.27 675.29C310.55 675.29 309.63 675.32 308.68 675.45C309.84 676.34 310.13 676.8 310.89 676.8C311.23 676.8 312.17 676.79 312.62 676.17ZM303.45 673.96C301.52 671.72 299.59 668.91 297.98 666.03C296.96 669.57 295.6 673.39 294.15 676.85C297.15 675.69 300.4 674.68 303.45 673.96ZM297.11 653.92C296.97 653.96 295.21 656.43 297.25 658.52C298.61 655.49 297.18 653.9 297.11 653.92Z" id="a19t6rRGz8"></path><path d="M283.96 688.68C282.47 687.56 282.27 686.31 282.36 685.47C282.63 683.14 285.51 680.7 290.93 678.21C293.08 673.5 295.13 667.68 296.36 662.83C294.93 659.72 293.54 655.69 294.55 653.32C294.9 652.49 295.34 651.86 296.17 651.58C296.5 651.47 297.32 651.33 297.62 651.33C298.35 651.33 298.98 652.26 299.43 652.83C299.85 653.37 300.81 654.51 298.9 662.57C300.82 666.56 303.56 670.61 306.18 673.4C308.05 673.06 309.67 672.88 310.98 672.88C313.23 672.88 314.58 673.4 315.14 674.48C315.59 675.37 315.41 676.41 314.58 677.57C313.78 678.69 312.68 679.27 311.4 679.27C309.66 679.27 307.64 678.18 305.38 676.01C301.31 676.85 296.57 678.37 292.74 680.05C291.54 682.59 290.39 684.63 289.33 686.13C287.86 688.18 286.6 689.14 285.34 689.14C285.34 689.14 285.34 689.14 285.34 689.14C284.85 689.14 284.37 688.98 283.96 688.68ZM285.37 686.72C285.59 686.66 286.83 686.09 289.15 681.81C286.1 683.52 284.85 684.94 284.76 685.73C284.74 685.87 284.71 686.21 285.37 686.72ZM312.62 676.17C312.83 675.87 312.92 675.68 312.95 675.58C312.77 675.48 312.54 675.29 311.27 675.29C310.55 675.29 309.63 675.32 308.68 675.45C309.84 676.34 310.13 676.8 310.89 676.8C311.23 676.8 312.17 676.79 312.62 676.17ZM303.45 673.96C301.52 671.72 299.59 668.91 297.98 666.03C296.96 669.57 295.6 673.39 294.15 676.85C297.15 675.69 300.4 674.68 303.45 673.96ZM297.11 653.92C296.97 653.96 295.21 656.43 297.25 658.52C298.61 655.49 297.18 653.9 297.11 653.92Z" id="k7GbNLwR2"></path><path d="M266.72 719.51C266.72 718.02 266.72 710.61 266.72 697.27C272.87 697.27 322.11 697.27 328.26 697.27C328.26 710.61 328.26 718.02 328.26 719.51C328.26 720.66 327.33 721.6 326.17 721.6C314.69 721.6 274.55 721.6 268.81 721.6C267.66 721.6 266.72 720.66 266.72 719.51Z" id="fI55nENW9"></path><path d="M266.72 719.51C266.72 718.02 266.72 710.61 266.72 697.27C272.87 697.27 322.11 697.27 328.26 697.27C328.26 710.61 328.26 718.02 328.26 719.51C328.26 720.66 327.33 721.6 326.17 721.6C314.69 721.6 274.55 721.6 268.81 721.6C267.66 721.6 266.72 720.66 266.72 719.51Z" id="d4Aw2ZMVx"></path><path d="M279.95 702.88C282.43 702.88 283.82 702.88 284.1 702.88C284.71 702.88 285.32 702.98 285.92 703.18C286.51 703.37 287.05 703.67 287.53 704.06C288.01 704.45 288.39 704.92 288.69 705.47C288.98 706.03 289.13 706.66 289.13 707.34C289.13 708.08 289 708.74 288.75 709.33C288.5 709.93 288.16 710.42 287.72 710.83C287.27 711.23 286.74 711.55 286.11 711.77C285.49 711.99 284.79 712.1 284.03 712.1C283.92 712.1 283.34 712.1 282.29 712.1C282.29 712.45 282.29 714.18 282.29 717.31L279.95 717.31C279.95 708.65 279.95 703.84 279.95 702.88ZM284.45 710.38C284.74 710.38 285.02 710.33 285.3 710.23C285.58 710.13 285.84 709.98 286.07 709.75C286.31 709.53 286.5 709.22 286.64 708.82C286.78 708.43 286.85 707.93 286.85 707.34C286.85 707.11 286.82 706.84 286.76 706.54C286.69 706.23 286.56 705.93 286.36 705.65C286.15 705.37 285.87 705.14 285.51 704.95C285.14 704.76 284.66 704.67 284.06 704.67C283.94 704.67 283.36 704.67 282.3 704.67C282.3 705.05 282.3 706.95 282.3 710.38C283.64 710.38 284.35 710.38 284.45 710.38Z" id="ahSHfVylm"></path><path d="M279.95 702.88C282.43 702.88 283.82 702.88 284.1 702.88C284.71 702.88 285.32 702.98 285.92 703.18C286.51 703.37 287.05 703.67 287.53 704.06C288.01 704.45 288.39 704.92 288.69 705.47C288.98 706.03 289.13 706.66 289.13 707.34C289.13 708.08 289 708.74 288.75 709.33C288.5 709.93 288.16 710.42 287.72 710.83C287.27 711.23 286.74 711.55 286.11 711.77C285.49 711.99 284.79 712.1 284.03 712.1C283.92 712.1 283.34 712.1 282.29 712.1C282.29 712.45 282.29 714.18 282.29 717.31L279.95 717.31C279.95 708.65 279.95 703.84 279.95 702.88ZM284.45 710.38C284.74 710.38 285.02 710.33 285.3 710.23C285.58 710.13 285.84 709.98 286.07 709.75C286.31 709.53 286.5 709.22 286.64 708.82C286.78 708.43 286.85 707.93 286.85 707.34C286.85 707.11 286.82 706.84 286.76 706.54C286.69 706.23 286.56 705.93 286.36 705.65C286.15 705.37 285.87 705.14 285.51 704.95C285.14 704.76 284.66 704.67 284.06 704.67C283.94 704.67 283.36 704.67 282.3 704.67C282.3 705.05 282.3 706.95 282.3 710.38C283.64 710.38 284.35 710.38 284.45 710.38Z" id="d1Xpjqa9hm"></path><path d="M302.18 714.85C301.79 715.42 301.35 715.87 300.86 716.19C300.37 716.52 299.9 716.76 299.44 716.93C298.98 717.09 298.56 717.19 298.19 717.24C297.81 717.28 297.53 717.31 297.35 717.31C296.98 717.31 295.16 717.31 291.89 717.31C291.89 715.86 291.89 704.32 291.89 702.88C294.49 702.88 295.94 702.88 296.23 702.88C297.45 702.88 298.51 703.08 299.43 703.46C300.35 703.84 301.11 704.36 301.72 705C302.32 705.64 302.78 706.37 303.08 707.18C303.38 707.99 303.53 708.83 303.53 709.69C303.53 710.88 303.4 711.9 303.15 712.74C302.89 713.58 302.57 714.28 302.18 714.85ZM301.06 709.64C301.06 709.03 300.99 708.44 300.84 707.85C300.7 707.26 300.43 706.74 300.02 706.26C299.61 705.78 299.05 705.4 298.35 705.1C297.64 704.81 296.72 704.67 295.6 704.67C295.51 704.67 295.05 704.67 294.23 704.67C294.23 705.39 294.23 709.03 294.23 715.58C295.63 715.58 296.41 715.58 296.56 715.58C298.39 715.24 299.53 714.73 300.01 714.06C300.71 713.04 301.06 711.57 301.06 709.64Z" id="cwTr1mzgO"></path><path d="M302.18 714.85C301.79 715.42 301.35 715.87 300.86 716.19C300.37 716.52 299.9 716.76 299.44 716.93C298.98 717.09 298.56 717.19 298.19 717.24C297.81 717.28 297.53 717.31 297.35 717.31C296.98 717.31 295.16 717.31 291.89 717.31C291.89 715.86 291.89 704.32 291.89 702.88C294.49 702.88 295.94 702.88 296.23 702.88C297.45 702.88 298.51 703.08 299.43 703.46C300.35 703.84 301.11 704.36 301.72 705C302.32 705.64 302.78 706.37 303.08 707.18C303.38 707.99 303.53 708.83 303.53 709.69C303.53 710.88 303.4 711.9 303.15 712.74C302.89 713.58 302.57 714.28 302.18 714.85ZM301.06 709.64C301.06 709.03 300.99 708.44 300.84 707.85C300.7 707.26 300.43 706.74 300.02 706.26C299.61 705.78 299.05 705.4 298.35 705.1C297.64 704.81 296.72 704.67 295.6 704.67C295.51 704.67 295.05 704.67 294.23 704.67C294.23 705.39 294.23 709.03 294.23 715.58C295.63 715.58 296.41 715.58 296.56 715.58C298.39 715.24 299.53 714.73 300.01 714.06C300.71 713.04 301.06 711.57 301.06 709.64Z" id="d3KP64qrl"></path><path d="M315.35 709.2L315.35 710.81L309.32 710.81L309.32 717.31L306.93 717.31L306.93 702.88L315.96 702.88L315.96 704.67L309.32 704.67L309.32 709.2L315.35 709.2Z" id="i1T2sGz2R3"></path><path d="M315.35 709.2L315.35 710.81L309.32 710.81L309.32 717.31L306.93 717.31L306.93 702.88L315.96 702.88L315.96 704.67L309.32 704.67L309.32 709.2L315.35 709.2Z" id="b7vuQEYA9R"></path></defs><g><g><use xlink:href="#a3MYCFzZ0H" opacity="1" fill="url(#gradientc3JchXbzqP)"></use><g><use xlink:href="#a3MYCFzZ0H" opacity="1" fill-opacity="0" stroke="#000000" stroke-width="1" stroke-opacity="0"></use></g></g><g><use xlink:href="#bma3uM4sv" opacity="1" fill="#e9e9e0" fill-opacity="1"></use><g><use xlink:href="#bma3uM4sv" opacity="1" fill-opacity="0" stroke="#000000" stroke-width="1" stroke-opacity="0"></use></g></g><g><use xlink:href="#h1Z9s2fiI" opacity="1" fill="#000000" fill-opacity="0"></use><g><use xlink:href="#h1Z9s2fiI" opacity="1" fill-opacity="0" stroke="#000000" stroke-width="1" stroke-opacity="0"></use></g></g><g><use xlink:href="#a4wZBMd5q" opacity="1" fill="#d9d7ca" fill-opacity="1"></use><g><use xlink:href="#a4wZBMd5q" opacity="1" fill-opacity="0" stroke="#000000" stroke-width="1" stroke-opacity="0"></use></g></g><g><use xlink:href="#abxyAcHt7" opacity="1" fill="#000000" fill-opacity="0"></use><g><use xlink:href="#abxyAcHt7" opacity="1" fill-opacity="0" stroke="#000000" stroke-width="1" stroke-opacity="0"></use></g></g><g><use xlink:href="#a19t6rRGz8" opacity="1" fill="#cc4b4c" fill-opacity="1"></use><g><use xlink:href="#a19t6rRGz8" opacity="1" fill-opacity="0" stroke="#000000" stroke-width="1" stroke-opacity="0"></use></g></g><g><use xlink:href="#k7GbNLwR2" opacity="1" fill="#000000" fill-opacity="0"></use><g><use xlink:href="#k7GbNLwR2" opacity="1" fill-opacity="0" stroke="#000000" stroke-width="1" stroke-opacity="0"></use></g></g><g><use xlink:href="#fI55nENW9" opacity="1" fill="#cc4b4c" fill-opacity="1"></use><g><use xlink:href="#fI55nENW9" opacity="1" fill-opacity="0" stroke="#000000" stroke-width="1" stroke-opacity="0"></use></g></g><g><use xlink:href="#d4Aw2ZMVx" opacity="1" fill="#000000" fill-opacity="0"></use><g><use xlink:href="#d4Aw2ZMVx" opacity="1" fill-opacity="0" stroke="#000000" stroke-width="1" stroke-opacity="0"></use></g></g><g><use xlink:href="#ahSHfVylm" opacity="1" fill="#ffffff" fill-opacity="1"></use><g><use xlink:href="#ahSHfVylm" opacity="1" fill-opacity="0" stroke="#000000" stroke-width="1" stroke-opacity="0"></use></g></g><g><use xlink:href="#d1Xpjqa9hm" opacity="1" fill="#000000" fill-opacity="0"></use><g><use xlink:href="#d1Xpjqa9hm" opacity="1" fill-opacity="0" stroke="#000000" stroke-width="1" stroke-opacity="0"></use></g></g><g><use xlink:href="#cwTr1mzgO" opacity="1" fill="#ffffff" fill-opacity="1"></use><g><use xlink:href="#cwTr1mzgO" opacity="1" fill-opacity="0" stroke="#000000" stroke-width="1" stroke-opacity="0"></use></g></g><g><use xlink:href="#d3KP64qrl" opacity="1" fill="#000000" fill-opacity="0"></use><g><use xlink:href="#d3KP64qrl" opacity="1" fill-opacity="0" stroke="#000000" stroke-width="1" stroke-opacity="0"></use></g></g><g><use xlink:href="#i1T2sGz2R3" opacity="1" fill="#ffffff" fill-opacity="1"></use><g><use xlink:href="#i1T2sGz2R3" opacity="1" fill-opacity="0" stroke="#000000" stroke-width="1" stroke-opacity="0"></use></g></g><g><use xlink:href="#b7vuQEYA9R" opacity="1" fill="#000000" fill-opacity="0"></use><g><use xlink:href="#b7vuQEYA9R" opacity="1" fill-opacity="0" stroke="#000000" stroke-width="1" stroke-opacity="0"></use></g></g></g></svg>