<?xml version="1.0" encoding="UTF-8" standalone="no"?>
<!DOCTYPE svg PUBLIC "-//W3C//DTD SVG 1.1//EN" "http://www.w3.org/Graphics/SVG/1.1/DTD/svg11.dtd">
<svg version="1.1" xmlns="http://www.w3.org/2000/svg" xmlns:xlink="http://www.w3.org/1999/xlink" preserveAspectRatio="xMidYMid meet" viewBox="40.56976744186043 456.9039092552131 138.41860465116287 138.4186046511628" width="134.42" height="134.42"><defs><path d="M161.05 457.9C169.3 457.9 175.99 464.59 175.99 472.84C175.99 496.74 175.99 553.49 175.99 577.39C175.99 585.64 169.3 592.32 161.05 592.32C137.16 592.32 80.4 592.32 56.51 592.32C48.26 592.32 41.57 585.64 41.57 577.39C41.57 553.49 41.57 496.74 41.57 472.84C41.57 464.59 48.26 457.9 56.51 457.9C80.4 457.9 137.16 457.9 161.05 457.9Z" id="a2z0iOHlt"></path><linearGradient id="gradienta1omvdQYPK" gradientUnits="userSpaceOnUse" x1="108.78" y1="457.9" x2="108.78" y2="592.32"><stop style="stop-color: #ff0000;stop-opacity: 1" offset="0%"></stop><stop style="stop-color: #ffe700;stop-opacity: 1" offset="100%"></stop></linearGradient><path d="M64.72 495.33L152.26 495.33L152.26 559.07L64.72 559.07L64.72 495.33Z" id="an7koIkO"></path><path d="M108.49 495.33L152.26 495.33L152.26 559.07L108.49 559.07L108.49 495.33Z" id="c3a8VOrb8U"></path><path d="M137.72 511.82C135.7 511.82 134.06 510.17 134.06 508.16C134.06 507.98 134.06 507.13 134.06 505.59L82.92 505.59C82.92 507.13 82.92 507.98 82.92 508.16C82.92 510.17 81.27 511.82 79.26 511.82C79.09 511.82 78.23 511.82 76.69 511.82L76.69 542.59C78.23 542.59 79.09 542.59 79.26 542.59C81.27 542.59 82.92 544.23 82.92 546.25C82.92 546.42 82.92 547.27 82.92 548.81L134.06 548.81C134.06 547.27 134.06 546.42 134.06 546.25C134.06 544.23 135.7 542.59 137.72 542.59C137.89 542.59 138.75 542.59 140.29 542.59L140.29 511.82C138.92 511.82 138.06 511.82 137.72 511.82Z" id="b19GacD6zB"></path><path d="M137.72 511.82C135.7 511.82 134.06 510.17 134.06 508.16C134.06 507.98 134.06 507.13 134.06 505.59L108.49 505.59L108.49 548.81L134.06 548.81C134.06 547.27 134.06 546.42 134.06 546.25C134.06 544.23 135.7 542.59 137.72 542.59C137.89 542.59 138.75 542.59 140.29 542.59L140.29 511.82C138.92 511.82 138.06 511.82 137.72 511.82Z" id="ehDDcBzLz"></path><path d="M99.56 550.61L99.56 575.48L108.49 570.52L117.42 575.48L117.42 550.61L99.56 550.61Z" id="f3JFYwXjY"></path><path d="M117.42 575.48L117.42 550.61L108.49 550.61L108.49 570.52L117.42 575.48Z" id="b1FLPZbRJ"></path><path d="M108.49 536.84C103.29 536.84 99.08 541.05 99.08 546.25C99.08 551.44 103.29 555.65 108.49 555.65C113.68 555.65 117.89 551.44 117.89 546.25C117.89 541.05 113.68 536.84 108.49 536.84Z" id="aQxGOyaoY"></path><path d="M108.49 555.65C113.68 555.65 117.89 551.44 117.89 546.25C117.89 541.05 113.68 536.84 108.49 536.84C108.49 540.6 108.49 553.77 108.49 555.65Z" id="biylLcNY5"></path><path d="M96.52 546.25C96.52 539.65 101.89 534.28 108.49 534.28C115.09 534.28 120.46 539.65 120.46 546.25C120.46 552.85 115.09 558.22 108.49 558.22C101.89 558.22 96.52 552.85 96.52 546.25ZM101.65 546.25C101.65 550.02 104.72 553.09 108.49 553.09C112.26 553.09 115.33 550.02 115.33 546.25C115.33 542.48 112.26 539.41 108.49 539.41C104.72 539.41 101.65 542.48 101.65 546.25Z" id="a2DPsG9Mh4"></path><path d="M90.53 515.51L126.44 515.51L126.44 520.64L90.53 520.64L90.53 515.51Z" id="a2ptI8H5BM"></path><path d="M97.94 524.74L119.03 524.74L119.03 529.88L97.94 529.88L97.94 524.74Z" id="h73FmD00w4"></path><path d="M108.49 515.51L126.44 515.51L126.44 520.64L108.49 520.64L108.49 515.51Z" id="bDj3RrHkH"></path><path d="M108.49 524.74L119.03 524.74L119.03 529.88L108.49 529.88L108.49 524.74Z" id="d4wnCLC8iV"></path><path d="M108.49 539.41C112.26 539.41 115.33 542.48 115.33 546.25C115.33 550.02 112.26 553.09 108.49 553.09C108.49 553.6 108.49 557.7 108.49 558.22C115.09 558.22 120.46 552.85 120.46 546.25C120.46 539.65 115.09 534.28 108.49 534.28C108.49 535.3 108.49 538.9 108.49 539.41Z" id="b2DMmuazAC"></path></defs><g><g><use xlink:href="#a2z0iOHlt" opacity="1" fill="url(#gradienta1omvdQYPK)"></use></g><g><use xlink:href="#an7koIkO" opacity="1" fill="#ececef" fill-opacity="1"></use><g><use xlink:href="#an7koIkO" opacity="1" fill-opacity="0" stroke="#000000" stroke-width="1" stroke-opacity="0"></use></g></g><g><use xlink:href="#c3a8VOrb8U" opacity="1" fill="#dddddf" fill-opacity="1"></use><g><use xlink:href="#c3a8VOrb8U" opacity="1" fill-opacity="0" stroke="#000000" stroke-width="1" stroke-opacity="0"></use></g></g><g><use xlink:href="#b19GacD6zB" opacity="1" fill="#f6f9f9" fill-opacity="1"></use><g><use xlink:href="#b19GacD6zB" opacity="1" fill-opacity="0" stroke="#000000" stroke-width="1" stroke-opacity="0"></use></g></g><g><use xlink:href="#ehDDcBzLz" opacity="1" fill="#ececef" fill-opacity="1"></use><g><use xlink:href="#ehDDcBzLz" opacity="1" fill-opacity="0" stroke="#000000" stroke-width="1" stroke-opacity="0"></use></g></g><g><use xlink:href="#f3JFYwXjY" opacity="1" fill="#ff6326" fill-opacity="1"></use><g><use xlink:href="#f3JFYwXjY" opacity="1" fill-opacity="0" stroke="#000000" stroke-width="1" stroke-opacity="0"></use></g></g><g><use xlink:href="#b1FLPZbRJ" opacity="1" fill="#ff3838" fill-opacity="1"></use><g><use xlink:href="#b1FLPZbRJ" opacity="1" fill-opacity="0" stroke="#000000" stroke-width="1" stroke-opacity="0"></use></g></g><g><use xlink:href="#aQxGOyaoY" opacity="1" fill="#fff16b" fill-opacity="1"></use><g><use xlink:href="#aQxGOyaoY" opacity="1" fill-opacity="0" stroke="#000000" stroke-width="1" stroke-opacity="0"></use></g></g><g><use xlink:href="#biylLcNY5" opacity="1" fill="#ffd321" fill-opacity="1"></use><g><use xlink:href="#biylLcNY5" opacity="1" fill-opacity="0" stroke="#000000" stroke-width="1" stroke-opacity="0"></use></g></g><g><use xlink:href="#a2DPsG9Mh4" opacity="1" fill="#ffd321" fill-opacity="1"></use><g><use xlink:href="#a2DPsG9Mh4" opacity="1" fill-opacity="0" stroke="#000000" stroke-width="1" stroke-opacity="0"></use></g></g><g><use xlink:href="#a2ptI8H5BM" opacity="1" fill="#595959" fill-opacity="1"></use><g><use xlink:href="#a2ptI8H5BM" opacity="1" fill-opacity="0" stroke="#000000" stroke-width="1" stroke-opacity="0"></use></g></g><g><use xlink:href="#h73FmD00w4" opacity="1" fill="#595959" fill-opacity="1"></use><g><use xlink:href="#h73FmD00w4" opacity="1" fill-opacity="0" stroke="#000000" stroke-width="1" stroke-opacity="0"></use></g></g><g><use xlink:href="#bDj3RrHkH" opacity="1" fill="#454040" fill-opacity="1"></use><g><use xlink:href="#bDj3RrHkH" opacity="1" fill-opacity="0" stroke="#000000" stroke-width="1" stroke-opacity="0"></use></g></g><g><use xlink:href="#d4wnCLC8iV" opacity="1" fill="#454040" fill-opacity="1"></use><g><use xlink:href="#d4wnCLC8iV" opacity="1" fill-opacity="0" stroke="#000000" stroke-width="1" stroke-opacity="0"></use></g></g><g><use xlink:href="#b2DMmuazAC" opacity="1" fill="#ffaf00" fill-opacity="1"></use><g><use xlink:href="#b2DMmuazAC" opacity="1" fill-opacity="0" stroke="#000000" stroke-width="1" stroke-opacity="0"></use></g></g></g></svg>