<?xml version="1.0" encoding="UTF-8" standalone="no"?>
<!DOCTYPE svg PUBLIC "-//W3C//DTD SVG 1.1//EN" "http://www.w3.org/Graphics/SVG/1.1/DTD/svg11.dtd">
<svg version="1.1" xmlns="http://www.w3.org/2000/svg" xmlns:xlink="http://www.w3.org/1999/xlink" preserveAspectRatio="xMidYMid meet" viewBox="228.2412790697677 456.903909255213 138.41860465116298 138.41860465116287" width="134.42" height="134.42"><defs><path d="M353.66 457.9C359.18 457.9 363.66 462.38 363.66 467.9C363.66 492.79 363.66 557.44 363.66 582.32C363.66 587.85 359.18 592.32 353.66 592.32C328.78 592.32 264.13 592.32 239.24 592.32C233.72 592.32 229.24 587.85 229.24 582.32C229.24 557.44 229.24 492.79 229.24 467.9C229.24 462.38 233.72 457.9 239.24 457.9C264.13 457.9 328.78 457.9 353.66 457.9Z" id="a2UDNvY9k"></path><linearGradient id="gradientcuqwUEPW" gradientUnits="userSpaceOnUse" x1="296.45" y1="592.32" x2="296.45" y2="459.94"><stop style="stop-color: #ffffff;stop-opacity: 1" offset="0%"></stop><stop style="stop-color: #a3aaae;stop-opacity: 1" offset="100%"></stop></linearGradient><path d="M282.24 488.5C281.51 486.31 279.51 485.04 277.32 485.04C275.41 485.04 260.11 485.04 258.19 485.04C255.1 485.04 252.73 487.4 252.73 490.5C252.73 497.42 252.73 552.8 252.73 559.73C252.73 562.82 255.1 565.19 258.19 565.19C265.85 565.19 327.06 565.19 334.71 565.19C337.8 565.19 340.17 562.82 340.17 559.73C340.17 553.99 340.17 508.08 340.17 502.34C340.17 499.24 337.8 496.88 334.71 496.88C331.43 496.88 315.03 496.88 285.52 496.88C283.55 491.85 282.46 489.06 282.24 488.5Z" id="a3DqenGODp"></path><path d="M333.07 496.69C333.07 494.69 331.43 493.05 329.42 493.05C322.83 493.05 270.07 493.05 263.48 493.05C261.47 493.05 259.83 494.69 259.83 496.69C259.83 497.91 259.83 503.98 259.83 514.91L333.07 514.91C333.07 503.98 333.07 497.91 333.07 496.69Z" id="aWppOo8yO"></path><path d="M333.07 502.16C333.07 500.16 331.43 498.52 329.42 498.52C322.83 498.52 270.07 498.52 263.48 498.52C261.47 498.52 259.83 500.16 259.83 502.16C259.83 503.37 259.83 509.45 259.83 520.38L333.07 520.38C333.07 509.45 333.07 503.37 333.07 502.16Z" id="a10wDfu4Zq"></path><path d="M252.73 559.73C252.73 562.82 255.1 565.19 258.19 565.19C265.85 565.19 327.06 565.19 334.71 565.19C337.8 565.19 340.17 562.82 340.17 559.73C340.17 554.84 340.17 515.79 340.17 510.9C340.17 507.81 337.8 505.44 334.71 505.44C327.06 505.44 265.85 505.44 258.19 505.44C255.1 505.44 252.73 507.99 252.73 510.9C252.73 520.67 252.73 554.84 252.73 559.73Z" id="hm1Qu8I6K"></path><path d="M318.31 526.39C318.31 520.19 313.21 515.09 307.02 515.09C302.1 515.09 298.09 518.19 296.45 522.38C294.81 518.01 290.8 515.09 285.88 515.09C279.69 515.09 274.59 520.19 274.59 526.39C274.59 538.23 288.98 545.52 296.45 555.72C304.65 544.61 318.31 538.41 318.31 526.39Z" id="c3zb8fafOQ"></path></defs><g><g><use xlink:href="#a2UDNvY9k" opacity="1" fill="url(#gradientcuqwUEPW)"></use></g><g><use xlink:href="#a3DqenGODp" opacity="1" fill="#f7b64c" fill-opacity="1"></use><g><use xlink:href="#a3DqenGODp" opacity="1" fill-opacity="0" stroke="#000000" stroke-width="1" stroke-opacity="0"></use></g></g><g><use xlink:href="#aWppOo8yO" opacity="1" fill="#f3f3f3" fill-opacity="1"></use><g><use xlink:href="#aWppOo8yO" opacity="1" fill-opacity="0" stroke="#000000" stroke-width="1" stroke-opacity="0"></use></g></g><g><use xlink:href="#a10wDfu4Zq" opacity="1" fill="#ffffff" fill-opacity="1"></use><g><use xlink:href="#a10wDfu4Zq" opacity="1" fill-opacity="0" stroke="#000000" stroke-width="1" stroke-opacity="0"></use></g></g><g><use xlink:href="#hm1Qu8I6K" opacity="1" fill="#ffd15c" fill-opacity="1"></use><g><use xlink:href="#hm1Qu8I6K" opacity="1" fill-opacity="0" stroke="#000000" stroke-width="1" stroke-opacity="0"></use></g></g><g><use xlink:href="#c3zb8fafOQ" opacity="1" fill="#f3705a" fill-opacity="1"></use><g><use xlink:href="#c3zb8fafOQ" opacity="1" fill-opacity="0" stroke="#000000" stroke-width="1" stroke-opacity="0"></use></g></g></g></svg>