<?xml version="1.0" encoding="UTF-8" standalone="no"?>
<!DOCTYPE svg PUBLIC "-//W3C//DTD SVG 1.1//EN" "http://www.w3.org/Graphics/SVG/1.1/DTD/svg11.dtd">
<svg version="1.1" xmlns="http://www.w3.org/2000/svg" xmlns:xlink="http://www.w3.org/1999/xlink" preserveAspectRatio="xMidYMid meet" viewBox="40.82047244094461 615.3164107663436 138.4186046511627 138.4186046511627" width="134.42" height="134.42"><defs><path d="M161.64 616.32C169.7 616.32 176.24 622.85 176.24 630.92C176.24 654.88 176.24 712.17 176.24 736.13C176.24 744.2 169.7 750.74 161.64 750.74C137.67 750.74 80.39 750.74 56.42 750.74C48.36 750.74 41.82 744.2 41.82 736.13C41.82 712.17 41.82 654.88 41.82 630.92C41.82 622.85 48.36 616.32 56.42 616.32C80.39 616.32 137.67 616.32 161.64 616.32Z" id="fiOXScZIu"></path><linearGradient id="gradienta5nXc1piCC" gradientUnits="userSpaceOnUse" x1="109.03" y1="748.74" x2="108.49" y2="616.32"><stop style="stop-color: #ffffff;stop-opacity: 1" offset="0%"></stop><stop style="stop-color: #a3aaae;stop-opacity: 1" offset="100%"></stop></linearGradient><path d="M131.98 641.34C127.24 641.34 89.34 641.34 84.6 641.34C80.69 641.34 77.16 642.91 74.42 645.65C72.07 648.39 70.51 651.52 70.51 655.83C70.51 660.57 70.51 698.47 70.51 703.21C70.51 707.12 72.07 710.65 74.82 713.39C77.56 715.74 80.69 717.31 84.6 717.31C85.7 717.31 94.47 717.31 95.57 717.31C96.35 717.31 96.74 717.31 97.13 717.31C97.52 717.31 97.92 716.91 98.31 716.52C98.7 716.13 98.7 715.74 98.7 714.96C98.7 714.96 98.7 713.78 98.7 711.43C98.7 709.47 98.7 707.52 98.7 706.34C98.58 706.38 97.64 706.69 97.52 706.73C96.74 706.73 95.96 706.73 94.78 706.73C93.61 706.73 92.43 706.73 91.26 706.34C90.09 705.95 88.91 705.56 88.13 704.78C86.95 703.99 86.56 702.82 85.78 701.64C85.74 701.53 85.43 700.59 85.39 700.47C85 699.69 84.6 698.9 83.82 698.12C83.04 697.34 82.25 696.55 81.86 696.16C81.82 696.12 81.51 695.81 81.47 695.77C81.08 695.77 81.08 695.38 80.69 694.99C80.3 694.6 80.3 694.6 80.3 694.2C80.3 693.81 80.3 693.81 80.69 693.81C81.08 693.81 81.47 693.42 82.25 693.42C82.37 693.42 83.31 693.42 83.43 693.42C84.21 693.42 85 693.81 85.78 694.6C86.56 695.38 87.74 696.16 88.13 697.34C88.91 698.51 89.69 699.69 90.87 700.47C92.04 701.25 92.83 701.64 94 701.64C95.18 701.64 95.96 701.64 96.74 701.25C97.52 701.25 98.31 700.86 99.09 700.47C99.48 698.12 100.27 696.55 101.44 695.38C99.48 694.99 97.92 694.99 96.35 694.6C94.78 694.2 93.22 693.42 91.65 692.64C90.09 691.85 88.91 690.68 87.74 689.51C86.56 688.33 85.78 686.37 85 684.41C84.21 682.46 83.82 679.72 83.82 676.98C83.82 673.06 85 669.54 87.74 666.8C86.95 664.05 86.95 660.92 88.52 657.01C89.3 656.61 90.87 657.01 92.83 657.79C94.78 658.57 95.96 659.36 96.74 659.75C97.92 660.14 98.31 660.53 99.09 660.92C102.22 660.14 105.36 659.75 108.49 659.75C111.62 659.75 114.75 660.14 117.89 660.92C118.08 660.8 119.65 659.86 119.84 659.75C121.02 658.96 122.58 658.18 124.54 657.4C126.11 656.61 127.67 656.61 128.46 657.01C130.02 660.92 130.02 664.05 128.85 667.19C131.59 669.93 132.76 673.45 132.76 677.37C132.76 680.11 132.37 682.46 131.59 684.81C130.81 687.16 130.02 688.72 128.85 689.9C127.67 691.07 126.5 692.25 124.93 693.03C123.37 693.81 121.8 694.6 120.23 694.99C118.67 695.38 117.1 695.77 115.14 695.77C116.71 697.34 117.89 699.69 117.89 702.82C117.89 703.99 117.89 713.39 117.89 714.56C117.89 714.96 117.89 715.74 118.28 715.74C118.28 716.13 118.67 716.13 119.06 716.52C119.45 716.52 119.84 716.91 119.84 716.91C120.23 716.91 120.63 716.91 121.02 716.91C122.11 716.91 130.89 716.91 131.98 716.91C135.9 716.91 139.42 715.35 142.16 712.61C144.9 709.87 146.47 706.34 146.47 702.43C146.47 697.77 146.47 660.49 146.47 655.83C146.47 651.52 144.9 648.39 142.16 645.65C139.42 642.91 135.9 641.34 131.98 641.34Z" id="ebZaMWbpI"></path><linearGradient id="gradientdOYHqRu1s" gradientUnits="userSpaceOnUse" x1="70.51" y1="679.36" x2="146.41" y2="679.36"><stop style="stop-color: #1245c6;stop-opacity: 1" offset="0%"></stop><stop style="stop-color: #9909b7;stop-opacity: 1" offset="100%"></stop></linearGradient></defs><g><g><use xlink:href="#fiOXScZIu" opacity="1" fill="url(#gradienta5nXc1piCC)"></use></g><g><use xlink:href="#ebZaMWbpI" opacity="1" fill="url(#gradientdOYHqRu1s)"></use><g><use xlink:href="#ebZaMWbpI" opacity="1" fill-opacity="0" stroke="#000000" stroke-width="1" stroke-opacity="0"></use></g></g></g></svg>