<?xml version="1.0" encoding="utf-8"?>
<!-- Generator: Adobe Illustrator 19.0.0, SVG Export Plug-In . SVG Version: 6.00 Build 0)  -->
<svg version="1.1" id="Layer_1" xmlns="http://www.w3.org/2000/svg" xmlns:xlink="http://www.w3.org/1999/xlink" x="0px" y="0px"
	 viewBox="0 0 96 96" style="enable-background:new 0 0 96 96;" xml:space="preserve">
<style type="text/css">
	.st0{fill:#231F20;}
</style>
<g id="XMLID_1_">
	<path id="XMLID_8_" class="st0" d="M67.3,73.7H28.7V22.3h38.6V73.7z M69.6,19.7c0-1-0.8-1.7-1.7-1.7H28.1c-1,0-1.7,0.8-1.7,1.7
		v56.5c0,1,0.8,1.7,1.7,1.7h39.8c1,0,1.7-0.8,1.7-1.7V19.7z M48,19.6c0.3,0,0.6,0.3,0.6,0.6c0,0.3-0.3,0.6-0.6,0.6
		c-0.3,0-0.6-0.3-0.6-0.6C47.4,19.8,47.7,19.6,48,19.6 M48,75.4c-0.4,0-0.6,0.3-0.6,0.6c0,0.4,0.3,0.6,0.6,0.6
		c0.4,0,0.6-0.3,0.6-0.6C48.7,75.6,48.4,75.4,48,75.4 M48,77.1c-0.6,0-1.1-0.5-1.1-1.1c0-0.6,0.5-1.1,1.1-1.1c0.6,0,1.1,0.5,1.1,1.1
		C49.1,76.6,48.6,77.1,48,77.1"/>
</g>
</svg>
