<?xml version="1.0" encoding="UTF-8" standalone="no"?>
<!DOCTYPE svg PUBLIC "-//W3C//DTD SVG 1.1//EN" "http://www.w3.org/Graphics/SVG/1.1/DTD/svg11.dtd">
<svg version="1.1" xmlns="http://www.w3.org/2000/svg" xmlns:xlink="http://www.w3.org/1999/xlink" preserveAspectRatio="xMidYMid meet" viewBox="415.2790697674419 456.9039092552131 138.41860465116326 138.41860465116304" width="134.42" height="134.42"><defs><path d="M534.65 457.9C543.51 457.9 550.7 465.09 550.7 473.95C550.7 497.62 550.7 552.6 550.7 576.28C550.7 585.14 543.51 592.32 534.65 592.32C510.98 592.32 456 592.32 432.32 592.32C423.46 592.32 416.28 585.14 416.28 576.28C416.28 552.6 416.28 497.62 416.28 473.95C416.28 465.09 423.46 457.9 432.32 457.9C456 457.9 510.98 457.9 534.65 457.9Z" id="aAgxp84o5"></path><linearGradient id="gradientc1laTnr2D0" gradientUnits="userSpaceOnUse" x1="483.49" y1="457.9" x2="485.31" y2="592.32"><stop style="stop-color: #00b1ff;stop-opacity: 1" offset="0%"></stop><stop style="stop-color: #a40087;stop-opacity: 1" offset="100%"></stop></linearGradient><path d="M472.22 553.17C472.22 559.96 469.5 565.94 465.27 569.56C466.24 569.56 471.1 569.56 479.84 569.56L487.13 569.56C495.88 569.56 500.73 569.56 501.71 569.56C497.48 565.94 494.76 559.96 494.76 553.17C494.76 552.54 494.83 551.96 494.87 551.35C494.36 551.35 491.78 551.35 487.13 551.35L479.84 551.35L472.1 551.35C472.18 552.14 472.22 552.75 472.22 553.17Z" id="a7XdJtfqK"></path><path d="M472.22 553.17C472.22 554.99 472.05 556.81 471.65 558.63C474.02 558.63 492.96 558.63 495.33 558.63C494.93 556.81 494.76 554.99 494.76 553.17C494.76 552.44 494.83 551.71 494.87 551.35C494.36 551.35 491.78 551.35 487.13 551.35L479.84 551.35L472.1 551.35C472.18 552.07 472.22 552.68 472.22 553.17Z" id="fYyH5h1dy"></path><path d="M439.77 496.69C439.77 496.94 439.77 498.15 439.77 500.34L439.77 507.62L439.77 514.91L439.77 522.2L439.77 525.84L439.77 529.49L439.77 533.13L439.77 540.42L439.77 547.7C439.77 549.89 439.77 551.1 439.77 551.35C439.77 553.17 441.4 554.99 443.41 554.99C443.65 554.99 444.87 554.99 447.05 554.99L494.42 554.99L516.28 554.99L519.92 554.99C522.11 554.99 523.32 554.99 523.57 554.99C525.58 554.99 527.21 553.17 527.21 551.35C527.21 551.1 527.21 549.89 527.21 547.7L527.21 522.2L527.21 518.56L527.21 514.91L527.21 507.62L527.21 500.34C527.21 498.15 527.21 496.94 527.21 496.69C527.21 494.51 525.58 493.05 523.57 493.05C523.32 493.05 522.11 493.05 519.92 493.05L501.71 493.05L498.06 493.05L465.27 493.05L450.7 493.05L447.05 493.05L443.41 493.05C440.98 494.02 439.77 495.24 439.77 496.69Z" id="acNydMmRk"></path><path d="M523.57 496.69C523.57 496.69 523.57 496.69 523.57 496.69C523.57 527.3 523.57 544.3 523.57 547.7C523.57 547.7 523.57 547.7 523.57 547.7C475.47 547.7 448.75 547.7 443.41 547.7C443.41 547.7 443.41 547.7 443.41 547.7C443.41 517.1 443.41 500.1 443.41 496.69C443.41 496.69 443.41 496.69 443.41 496.69C491.5 496.69 518.22 496.69 523.57 496.69Z" id="c5pBPkhdXj"></path><path d="M447.05 547.7L518.4 547.7L523.57 547.7L523.57 541.87L523.57 500.34L447.05 547.7Z" id="g5ZYqmcO0"></path></defs><g><g><use xlink:href="#aAgxp84o5" opacity="1" fill="url(#gradientc1laTnr2D0)"></use></g><g><use xlink:href="#a7XdJtfqK" opacity="1" fill="#95a5a6" fill-opacity="1"></use><g><use xlink:href="#a7XdJtfqK" opacity="1" fill-opacity="0" stroke="#000000" stroke-width="1" stroke-opacity="0"></use></g></g><g><use xlink:href="#fYyH5h1dy" opacity="1" fill="#7f8c8d" fill-opacity="1"></use><g><use xlink:href="#fYyH5h1dy" opacity="1" fill-opacity="0" stroke="#000000" stroke-width="1" stroke-opacity="0"></use></g></g><g><use xlink:href="#acNydMmRk" opacity="1" fill="#bdc3c7" fill-opacity="1"></use><g><use xlink:href="#acNydMmRk" opacity="1" fill-opacity="0" stroke="#000000" stroke-width="1" stroke-opacity="0"></use></g></g><g><use xlink:href="#c5pBPkhdXj" opacity="1" fill="#34495e" fill-opacity="1"></use><g><use xlink:href="#c5pBPkhdXj" opacity="1" fill-opacity="0" stroke="#000000" stroke-width="1" stroke-opacity="0"></use></g></g><g><use xlink:href="#g5ZYqmcO0" opacity="1" fill="#2c3e50" fill-opacity="1"></use><g><use xlink:href="#g5ZYqmcO0" opacity="1" fill-opacity="0" stroke="#000000" stroke-width="1" stroke-opacity="0"></use></g></g></g></svg>