<?xml version="1.0" encoding="UTF-8" standalone="no"?> <svg id="Layer_1" data-name="Layer 1" xmlns="http://www.w3.org/2000/svg" viewBox="0 0 128 128"><defs><style>.cls-1{fill:#2e79bd;}.cls-2{fill:#2d3e50;}</style></defs><title>x</title><path class="cls-1" d="M63.98733,58.34323a9.60953,9.60953,0,0,0,9.59953-9.60847V12.328a9.604,9.604,0,0,0-19.208,0V48.73475A9.61143,9.61143,0,0,0,63.98733,58.34323Zm-4.706-28.19138a.80643.80643,0,0,1,.51794-.4018c.11609-.02682,2.44676-.54476,3.98271-.87516l.61616-.14285-2.13423-5.70615-.02676-.04464a.80994.80994,0,0,1,.25-1.11622.824.824,0,0,1,.42861-.125.8001.8001,0,0,1,.67867.375l5.06318,7.99218a.80064.80064,0,0,1,.125.42861.88188.88188,0,0,1-.09821.39291.80414.80414,0,0,1-.43755.36615c-.20537.06252-2.51821.65186-4.03629,1.03583l-.58934.15185,2.0806,5.56325.02682.04464a.8051.8051,0,1,1-1.35735.86622l-5.06318-7.99218A.78253.78253,0,0,1,59.28131,30.15185Z"/><path class="cls-2" d="M98.6575,26.83631a9.47,9.47,0,0,0-10.10151-1.145,9.57855,9.57855,0,0,0-5.48236,8.69892,9.6945,9.6945,0,0,0,3.66932,7.54733,36.10524,36.10524,0,1,1-45.49978.0272,9.73542,9.73542,0,0,0,3.69717-7.57452,9.49744,9.49744,0,0,0-5.46138-8.64785,9.63469,9.63469,0,0,0-10.3011,1.2466,55.435,55.435,0,0,0-20.272,48.2456v.00027a55.41886,55.41886,0,0,0,51.03878,49.88778q2.06267.14888,4.10823.1489A55.31028,55.31028,0,0,0,98.6575,26.83631Z"/></svg>